#N canvas 1490 -288 516 428 10;
#X obj 109 4 loadbang;
#X obj 105 314 print;
#X msg 86 123 1;
#X msg 108 123 2;
#X msg 130 123 3;
#X msg 152 123 5;
#X msg 196 123 8;
#X msg 218 123 13;
#X msg 262 123 21;
#X msg 174 123 7;
#X msg 240 123 16;
#X obj 109 25 t b b b b b b b b;
#X obj 233 194 expr $f1 / $f2;
#X obj 118 260 expr ($f1-sin($i2))/($i3 + $f4);
#X obj 68 198 expr $f1 + $i3;
#X connect 0 0 11 0;
#X connect 2 0 13 0;
#X connect 5 0 12 1;
#X connect 5 0 14 0;
#X connect 6 0 12 1;
#X connect 6 0 14 0;
#X connect 7 0 14 2;
#X connect 8 0 12 0;
#X connect 9 0 13 2;
#X connect 9 0 14 2;
#X connect 11 0 2 0;
#X connect 11 3 12 0;
#X connect 11 3 13 0;
#X connect 11 3 14 0;
#X connect 11 4 8 0;
#X connect 11 5 6 0;
#X connect 11 5 7 0;
#X connect 11 5 12 0;
#X connect 11 6 5 0;
#X connect 11 6 8 0;
#X connect 11 6 14 0;
#X connect 11 7 9 0;
#X connect 11 7 5 0;
#X connect 11 7 12 0;
#X connect 11 7 14 0;
#X connect 12 0 1 0;
#X connect 12 0 13 3;
#X connect 13 0 1 0;
#X connect 14 0 1 0;
#X connect 14 0 13 1;
