#N canvas 2384 -401 291 285 12;
#X obj 72 49 osc~;
#X obj 72 177 dac~;
#X obj 72 74 expr~ sin($v1);
#X obj 72 123 -~;
#X obj 72 149 abs~;
#X obj 90 98 phasor~ 123;
#X connect 0 0 2 0;
#X connect 2 0 3 0;
#X connect 3 0 4 0;
#X connect 4 0 1 0;
#X connect 5 0 3 1;
