#N canvas 2232 -240 342 279 12;
#X obj 78 99 osc~;
#X obj 116 26 loadbang;
#X msg 116 75 0.5;
#X obj 78 136 -~;
#X obj 78 164 abs~;
#X obj 78 188 dac~;
#X obj 116 99 expr $f1 + 2;
#X obj 116 50 t b;
#X connect 0 0 3 0;
#X connect 1 0 7 0;
#X connect 2 0 6 0;
#X connect 3 0 4 0;
#X connect 4 0 5 0;
#X connect 6 0 3 1;
#X connect 7 0 2 0;
