#N canvas 2193 -262 280 279 12;
#X obj 78 99 osc~;
#X obj 135 94 sig~;
#X obj 135 46 loadbang;
#X msg 135 70 0.5;
#X obj 78 136 -~;
#X obj 78 160 sqrt~;
#X obj 78 184 abs~;
#X obj 78 208 dac~;
#X connect 0 0 4 0;
#X connect 1 0 4 1;
#X connect 2 0 3 0;
#X connect 3 0 1 0;
#X connect 4 0 5 0;
#X connect 5 0 6 0;
#X connect 6 0 7 0;
