#N canvas 691 48 327 209 10;
#X obj 93 22 loadbang;
#X obj 93 117 print;
#X obj 93 69 expr 3 + 5;
#X obj 93 94 expr $f1 + $f2;
#X obj 174 69 expr 13;
#X obj 93 44 t b b;
#X connect 0 0 5 0;
#X connect 2 0 3 0;
#X connect 3 0 1 0;
#X connect 4 0 3 1;
#X connect 5 0 2 0;
#X connect 5 1 4 0;
