#N canvas 2069 -207 419 549 12;
#X obj 61 372 dac~;
#X obj 61 318 -~;
#X obj 61 344 abs~;
#X obj 79 293 phasor~ 123;
#X obj 61 198 osc~ 200;
#X obj 75 226 expr~ $v1 * 0.5;
#X obj 61 269 expr~ (sin($v1+4)*$v2)/($v1+$v2-7.5);
#X connect 1 0 2 0;
#X connect 2 0 0 0;
#X connect 3 0 1 1;
#X connect 4 0 5 0;
#X connect 4 0 6 0;
#X connect 5 0 6 1;
#X connect 6 0 1 0;
