#N canvas 1041 394 796 531 12;
#X msg 135 173 1;
#X msg 103 173 54;
#X msg 72 173 23;
#X msg 36 174 234;
#X msg 231 142 symbol cort;
#X msg 270 169 symbol zack;
#X msg 296 194 symbol bill;
#X obj 36 26 loadbang;
#X obj 40 488 print A;
#X obj 236 486 print B;
#X obj 36 141 t b b b b;
#X obj 369 481 print C;
#X obj 515 479 print D;
#X obj 230 232 select cort zack;
#X obj 36 212 sel 1 54 23;
#X obj 231 88 t b b b;
#X obj 186 26 bng 15 250 50 0 empty empty empty 17 7 0 10 -262144 -1
-1;
#X obj 36 48 t b b;
#X connect 0 0 14 0;
#X connect 1 0 14 0;
#X connect 2 0 14 0;
#X connect 3 0 14 0;
#X connect 4 0 13 0;
#X connect 5 0 13 0;
#X connect 6 0 13 0;
#X connect 7 0 17 0;
#X connect 10 0 3 0;
#X connect 10 1 2 0;
#X connect 10 2 1 0;
#X connect 10 3 0 0;
#X connect 13 0 8 0;
#X connect 13 1 9 0;
#X connect 13 2 11 0;
#X connect 14 0 8 0;
#X connect 14 1 9 0;
#X connect 14 2 11 0;
#X connect 14 3 12 0;
#X connect 15 0 4 0;
#X connect 15 1 5 0;
#X connect 15 2 6 0;
#X connect 16 0 17 0;
#X connect 17 0 10 0;
#X connect 17 1 15 0;
