#N canvas 827 239 625 349 12;
#N canvas 0 0 450 250 (subpatch) 0;
#X array bladie\ @hv_table 100 float 2;
#X coords 0 1 100 -1 200 140 1;
#X restore 391 88 graph;
#X obj 32 25 loadbang;
#X msg 33 217 2;
#X obj 32 102 t b b b;
#X msg 244 165 2;
#X msg 91 165 0.3;
#X obj 33 289 print;
#X obj 32 60 bng 25 250 50 0 empty empty empty 17 7 0 10 #191919 #ffffff #ffffff;
#X obj 32 165 del 1;
#X obj 91 208 tabwrite bladie\ @hv_table;
#X obj 33 263 tabread bladie\ @hv_table;
#X connect 1 0 7 0;
#X connect 2 0 10 0;
#X connect 3 0 8 0;
#X connect 3 1 5 0;
#X connect 3 2 4 0;
#X connect 4 0 9 1;
#X connect 5 0 9 0;
#X connect 7 0 3 0;
#X connect 8 0 2 0;
#X connect 10 0 6 0;
