#N canvas 591 80 450 300 12;
#X obj 190 59 loadbang;
#X obj 56 108 r bla;
#X obj 56 133 print;
#X obj 104 132 print;
#X obj 104 107 r die;
#X msg 190 84 _ \; bla 1 \; die 2 \;;
#X connect 0 0 5 0;
#X connect 1 0 2 0;
#X connect 4 0 3 0;
