#N canvas 827 239 734 565 12;
#X obj 108 84 loadbang;
#X obj 108 115 bng 25 250 50 0 empty empty empty 17 7 0 10 #191919 #ffffff #ffffff;
#X obj 108 152 t b b b b b b b b b b, f 50;
#X obj 414 399 vsl 17 128 0 127 0 0 two_s two_r empty 0 -9 0 10 #191919 #ffffff #ffffff 0 1;
#X obj 445 397 hsl 128 17 0 127 0 0 one_s one_r empty -2 -8 0 10 #191919 #ffffff #ffffff 0 1;
#X obj 187 397 vradio 20 1 0 8 four_s four_r empty 0 -8 0 10 #191919 #ffffff #ffffff 0;
#X obj 219 397 hradio 20 1 0 8 three_s three_r empty 0 -8 0 10 #191919 #ffffff #ffffff 0;
#X obj 108 449 nbx 4 18 -1e+37 1e+37 0 0 seven_s seven_r empty 0 -8 0 10 #191919 #ffffff #ffffff 0 256;
#X obj 108 397 bng 25 250 50 0 six_s six_r empty 17 7 0 10 #191919 #ffffff #ffffff;
#X obj 145 397 tgl 25 0 five_s five_r empty 17 7 0 10 #191919 #ffffff #ffffff 0 1;
#X obj 266 452 knob 50 0 127 0 0 ten_s ten_r #191919 #626262 #FFFFFF 1 0 0 0 1 270 0 0 0 empty empty 0 12 6 -15 0 1 0 0;
#X floatatom 108 485 5 0 0 0 - eight_r eight_s 12;
#X symbolatom 108 518 10 0 0 0 - nine_r nine_s 0;
#X msg 442 183 1;
#X msg 404 209 2;
#X msg 367 235 3;
#X msg 330 261 4;
#X msg 293 183 5;
#X msg 256 216 6;
#X msg 219 261 7;
#X msg 182 287 8;
#X msg 145 183 9;
#X msg 108 209 10;
#X obj 442 209 s one_r;
#X obj 404 235 s two_r;
#X obj 367 261 s three_r;
#X obj 330 287 s four_r;
#X obj 293 209 s five_r;
#X obj 256 242 s six_r;
#X obj 219 287 s seven_r;
#X obj 182 313 s eight_r;
#X obj 145 209 s nine_r;
#X obj 108 235 s ten_r;
#X obj 448 691 r one_s;
#X obj 410 717 r two_s;
#X obj 373 743 r three_s;
#X obj 336 769 r four_s;
#X obj 299 691 r five_s;
#X obj 266 717 r six_s;
#X obj 219 743 r seven_s;
#X obj 187 769 r eight_s;
#X obj 151 691 r nine_s;
#X obj 121 717 r ten_s;
#X obj 173 890 print;
#X connect 0 0 1 0;
#X connect 1 0 2 0;
#X connect 2 0 22 0;
#X connect 2 1 21 0;
#X connect 2 2 20 0;
#X connect 2 3 19 0;
#X connect 2 4 18 0;
#X connect 2 5 17 0;
#X connect 2 6 16 0;
#X connect 2 7 15 0;
#X connect 2 8 14 0;
#X connect 2 9 13 0;
#X connect 13 0 23 0;
#X connect 14 0 24 0;
#X connect 15 0 25 0;
#X connect 16 0 26 0;
#X connect 17 0 27 0;
#X connect 18 0 28 0;
#X connect 19 0 29 0;
#X connect 20 0 30 0;
#X connect 21 0 31 0;
#X connect 22 0 32 0;
#X connect 33 0 43 0;
#X connect 34 0 43 0;
#X connect 35 0 43 0;
#X connect 36 0 43 0;
#X connect 37 0 43 0;
#X connect 38 0 43 0;
#X connect 39 0 43 0;
#X connect 40 0 43 0;
#X connect 41 0 43 0;
#X connect 42 0 43 0;
