#N canvas 750 181 363 362 10;
#X obj 24 11 loadbang;
#X obj 24 200 pack;
#X obj 24 127 t b b b;
#X msg 24 167 10;
#X msg 53 167 100;
#X obj 220 126 t b b;
#X msg 98 154 10;
#X obj 24 326 print;
#X obj 24 75 t b b b;
#X obj 24 39 bng 25 250 50 0 empty empty empty 17 7 0 10 #191919 #ffffff #ffffff;
#X obj 220 211 pack 100 s;
#X msg 269 181 symbol bla;
#X obj 98 124 t b b b;
#X obj 117 181 t b a;
#X obj 98 211 pack f s f;
#X msg 128 155 symbol die;
#X msg 171 181 2;
#X connect 0 0 9 0;
#X connect 1 0 7 0;
#X connect 2 0 3 0;
#X connect 2 1 4 0;
#X connect 2 2 3 0;
#X connect 3 0 1 0;
#X connect 4 0 1 1;
#X connect 5 0 10 0;
#X connect 5 1 11 0;
#X connect 6 0 14 0;
#X connect 8 0 2 0;
#X connect 8 1 12 0;
#X connect 8 2 5 0;
#X connect 9 0 8 0;
#X connect 10 0 7 0;
#X connect 11 0 10 1;
#X connect 12 0 6 0;
#X connect 12 1 15 0;
#X connect 12 2 16 0;
#X connect 13 0 14 0;
#X connect 13 1 14 1;
#X connect 14 0 7 0;
#X connect 15 0 13 0;
#X connect 16 0 14 2;
