#N canvas 479 256 559 429 12;
#X obj 58 25 loadbang;
#X msg 58 83 23 0;
#X msg 112 83 34.5 67.8;
#X obj 58 284 stripnote;
#X obj 58 316 print;
#X obj 274 114 t b b;
#X msg 274 139 10;
#X msg 306 139 20;
#X obj 341 113 t b b;
#X msg 373 138 0;
#X msg 341 138 9;
#X msg 220 83 40 50 60;
#X msg 166 112 15;
#X obj 58 50 t b b b b b b, f 39;
#X connect 0 0 13 0;
#X connect 1 0 3 0;
#X connect 2 0 3 0;
#X connect 3 0 4 0;
#X connect 3 1 4 0;
#X connect 5 0 6 0;
#X connect 5 1 7 0;
#X connect 6 0 3 0;
#X connect 7 0 3 1;
#X connect 8 0 10 0;
#X connect 8 1 9 0;
#X connect 9 0 3 1;
#X connect 10 0 3 0;
#X connect 11 0 3 0;
#X connect 12 0 3 0;
#X connect 13 0 1 0;
#X connect 13 1 2 0;
#X connect 13 2 12 0;
#X connect 13 3 11 0;
#X connect 13 4 5 0;
#X connect 13 5 8 0;
