#N canvas 1122 265 450 300 12;
#X obj 52 25 loadbang;
#X obj 52 160 print;
#X msg 52 85 2.3;
#X obj 164 162 print;
#X msg 106 85 -7.3;
#X obj 52 125 expr $i1 ^ 3;
#X obj 164 125 expr 11 ^ $i1;
#X obj 52 49 t b b;
#X connect 0 0 7 0;
#X connect 2 0 5 0;
#X connect 4 0 6 0;
#X connect 5 0 1 0;
#X connect 6 0 3 0;
#X connect 7 0 2 0;
#X connect 7 1 4 0;
