#N canvas 1245 634 450 300 12;
#X obj 52 25 loadbang;
#X obj 52 160 print;
#X msg 106 85 3.1;
#X msg 52 85 2.3;
#X obj 52 50 t b b b;
#X obj 52 126 expr if($f1 < $f2 \, $f1 \, 0);
#X connect 0 0 4 0;
#X connect 2 0 5 1;
#X connect 3 0 5 0;
#X connect 4 0 3 0;
#X connect 4 1 2 0;
#X connect 5 0 1 0;
