#N canvas 1119 295 450 300 12;
#X obj 52 25 loadbang;
#X obj 52 260 print;
#X obj 52 100 t b b b;
#X msg 161 135 5.5;
#X msg 52 135 2.3;
#X obj 52 58 bng 25 250 50 0 empty empty empty 17 7 0 10 #191919 #ffffff #ffffff;
#X obj 168 260 print;
#X obj 290 260 print;
#X obj 52 227 expr cos($f1);
#X obj 168 227 expr acos($f1);
#X obj 290 227 expr cosh($f1);
#X msg 106 135 -3.1;
#X obj 406 260 print;
#X obj 406 227 expr acosh($f1);
#X connect 0 0 5 0;
#X connect 2 0 4 0;
#X connect 2 1 11 0;
#X connect 2 2 3 0;
#X connect 3 0 10 0;
#X connect 3 0 9 0;
#X connect 3 0 8 0;
#X connect 3 0 13 0;
#X connect 4 0 10 0;
#X connect 4 0 9 0;
#X connect 4 0 8 0;
#X connect 4 0 13 0;
#X connect 5 0 2 0;
#X connect 8 0 1 0;
#X connect 9 0 6 0;
#X connect 10 0 7 0;
#X connect 11 0 10 0;
#X connect 11 0 9 0;
#X connect 11 0 8 0;
#X connect 11 0 13 0;
#X connect 13 0 12 0;
