#N canvas 188 57 619 297 12;
#X obj 40 22 loadbang;
#X obj 40 49 bng 25 250 50 0 empty empty empty 17 7 0 10 #191919 #ffffff #ffffff;
#X obj 40 230 print;
#X msg 40 137 0.5;
#X msg 87 137 3.7;
#X msg 133 137 -5;
#X obj 40 194 expr fact($f1);
#X msg 173 137 6;
#X msg 215 137 34;
#X msg 253 136 35;
#X msg 290 136 1000;
#X obj 40 80 t b b b b b b b;
#X connect 0 0 1 0;
#X connect 1 0 11 0;
#X connect 3 0 6 0;
#X connect 4 0 6 0;
#X connect 5 0 6 0;
#X connect 6 0 2 0;
#X connect 7 0 6 0;
#X connect 8 0 6 0;
#X connect 9 0 6 0;
#X connect 10 0 6 0;
#X connect 11 0 3 0;
#X connect 11 1 4 0;
#X connect 11 2 5 0;
#X connect 11 3 7 0;
#X connect 11 4 8 0;
#X connect 11 5 9 0;
#X connect 11 6 10 0;
