#N canvas 827 239 734 565 12;
#X obj 80 54 loadbang;
#X obj 80 80 bng 25 250 50 0 empty empty empty 17 7 0 10 #191919 #ffffff #ffffff;
#X obj 80 112 t b b b b b b b b b b b b b b b b b b b b, f 74;
#X msg 80 173 0.1;
#X msg 157 190 0.4;
#X msg 132 173 0.2;
#X msg 105 190 0.3;
#X msg 188 173 0.1;
#X msg 265 190 0.4;
#X msg 240 173 0.2;
#X msg 213 190 0.3;
#X msg 291 173 0.1;
#X msg 368 190 0.4;
#X msg 343 173 0.2;
#X msg 316 190 0.3;
#X msg 399 173 0.1;
#X msg 476 190 0.4;
#X msg 451 173 0.2;
#X msg 424 190 0.3;
#X msg 503 173 0.1;
#X msg 580 190 0.4;
#X msg 555 173 0.2;
#X msg 528 190 0.3;
#X obj 78 388 print;
#X obj 78 325 expr sin($f1 + $f2) - ($f3 / $f4) * $f5 - ($f6 + $f7) - ($f8 / $f9) * $f10 * ($f11 + $f12 - ($f13 / $f14) * $f15) + ($f16 + $f17 - tanh($f18 / $f19) * $f20), f 75;
#X connect 0 0 1 0;
#X connect 1 0 2 0;
#X connect 2 0 3 0;
#X connect 2 1 6 0;
#X connect 2 2 5 0;
#X connect 2 3 4 0;
#X connect 2 4 7 0;
#X connect 2 5 10 0;
#X connect 2 6 9 0;
#X connect 2 7 8 0;
#X connect 2 8 11 0;
#X connect 2 9 14 0;
#X connect 2 10 13 0;
#X connect 2 11 12 0;
#X connect 2 12 15 0;
#X connect 2 13 18 0;
#X connect 2 14 17 0;
#X connect 2 15 16 0;
#X connect 2 16 19 0;
#X connect 2 17 22 0;
#X connect 2 18 21 0;
#X connect 2 19 20 0;
#X connect 3 0 24 0;
#X connect 4 0 24 3;
#X connect 5 0 24 2;
#X connect 6 0 24 1;
#X connect 7 0 24 4;
#X connect 8 0 24 7;
#X connect 9 0 24 6;
#X connect 10 0 24 5;
#X connect 11 0 24 8;
#X connect 12 0 24 11;
#X connect 13 0 24 10;
#X connect 14 0 24 9;
#X connect 15 0 24 12;
#X connect 16 0 24 15;
#X connect 17 0 24 14;
#X connect 18 0 24 13;
#X connect 19 0 24 16;
#X connect 20 0 24 19;
#X connect 21 0 24 18;
#X connect 22 0 24 17;
#X connect 24 0 23 0;
