#N canvas 950 654 450 300 12;
#X obj 52 25 loadbang;
#X obj 52 160 print;
#X msg 106 85 3.1;
#X msg 52 85 2.3;
#X obj 52 50 t b b b;
#X msg 161 85 5.5;
#X obj 52 127 expr ($f1 < $f2) > $i3;
#X connect 0 0 4 0;
#X connect 2 0 6 1;
#X connect 3 0 6 0;
#X connect 4 0 3 0;
#X connect 4 1 2 0;
#X connect 4 2 5 0;
#X connect 5 0 6 2;
#X connect 6 0 1 0;
