#N canvas 648 159 450 300 12;
#X obj 55 17 loadbang;
#X obj 55 152 print;
#X obj 136 151 print;
#X msg 109 77 -7;
#X msg 55 77 2;
#X obj 55 119 expr $i1%2;
#X obj 136 118 expr $i1%3;
#X obj 55 42 t b b;
#X connect 0 0 7 0;
#X connect 3 0 6 0;
#X connect 4 0 5 0;
#X connect 5 0 1 0;
#X connect 6 0 2 0;
#X connect 7 0 4 0;
#X connect 7 1 3 0;
