#N canvas 827 239 734 565 12;
#X obj 78 80 loadbang;
#X obj 78 107 bng 25 250 50 0 empty empty empty 17 7 0 10 #191919 #ffffff #ffffff;
#X obj 78 256 print;
#X floatatom 78 185 5 0 0 0 - - - 0;
#X obj 78 215 expr isnan($f1);
#X obj 78 151 expr log(-1);
#X connect 0 0 1 0;
#X connect 1 0 5 0;
#X connect 3 0 4 0;
#X connect 4 0 2 0;
#X connect 5 0 3 0;
