#N canvas 827 239 734 565 12;
#X obj 40 -3 loadbang;
#X obj 40 165 print;
#X obj 40 55 t b b b;
#X msg 101 90 -3.1;
#X msg 163 90 5.7;
#X msg 40 90 2.3;
#X obj 40 132 expr min($f1 \, 5);
#X obj 180 165 print;
#X obj 180 132 expr max($f1 \, 5);
#X obj 40 24 bng 25 250 50 0 empty empty empty 17 7 0 10 #191919 #ffffff #ffffff;
#X connect 0 0 9 0;
#X connect 2 0 5 0;
#X connect 2 1 3 0;
#X connect 2 2 4 0;
#X connect 3 0 6 0;
#X connect 3 0 8 0;
#X connect 4 0 6 0;
#X connect 4 0 8 0;
#X connect 5 0 6 0;
#X connect 5 0 8 0;
#X connect 6 0 1 0;
#X connect 8 0 7 0;
#X connect 9 0 2 0;
