#N canvas 1119 295 450 300 12;
#X obj 52 25 loadbang;
#X obj 52 160 print;
#X msg 106 85 3.1;
#X obj 52 50 t b b b;
#X msg 161 85 5.5;
#X obj 52 127 expr cos($f1);
#X msg 52 85 2.3;
#X connect 0 0 3 0;
#X connect 2 0 5 0;
#X connect 3 0 6 0;
#X connect 3 1 2 0;
#X connect 3 2 4 0;
#X connect 4 0 5 0;
#X connect 5 0 1 0;
#X connect 6 0 5 0;
