#N canvas 827 239 734 565 12;
#X obj 40 30 loadbang;
#X obj 40 165 print;
#X obj 40 55 t b b b;
#X msg 101 90 -3.1;
#X msg 163 90 5.7;
#X obj 40 132 expr float($f1);
#X msg 40 90 2.3;
#X connect 0 0 2 0;
#X connect 2 0 6 0;
#X connect 2 1 3 0;
#X connect 2 2 4 0;
#X connect 3 0 5 0;
#X connect 4 0 5 0;
#X connect 5 0 1 0;
#X connect 6 0 5 0;
