#N canvas 827 239 734 565 12;
#X obj 85 40 loadbang;
#X obj 85 66 bng 25 250 50 0 empty empty empty 17 7 0 10 #191919 #ffffff #ffffff;
#X obj 85 98 t b b;
#X msg 85 124 0.1;
#X msg 118 124 3.2;
#X obj 85 181 print;
#X obj 85 155 expr $f1 + $f3;
#X connect 0 0 1 0;
#X connect 1 0 2 0;
#X connect 2 0 3 0;
#X connect 2 1 4 0;
#X connect 3 0 6 0;
#X connect 4 0 6 2;
#X connect 6 0 5 0;
