#N canvas 1119 295 450 300 12;
#X obj 52 6 loadbang;
#X obj 52 174 print;
#X msg 52 99 2.3;
#X obj 52 64 t b b b;
#X obj 52 32 bng 25 250 50 0 empty empty empty 17 7 0 10 #191919 #ffffff #ffffff;
#X msg 161 99 1;
#X msg 106 99 2.3;
#X obj 52 141 expr ($f1 == $i2) != $f3;
#X connect 0 0 4 0;
#X connect 2 0 7 0;
#X connect 3 0 2 0;
#X connect 3 1 6 0;
#X connect 3 2 5 0;
#X connect 4 0 3 0;
#X connect 5 0 7 2;
#X connect 6 0 7 1;
#X connect 7 0 1 0;
