#N canvas 827 239 734 565 12;
#X obj 56 42 loadbang;
#X obj 56 277 print;
#X msg 158 163 5.5;
#X msg 56 163 2.3;
#X obj 56 75 bng 25 250 50 0 empty empty empty 17 7 0 10 #191919 #ffffff #ffffff;
#X msg 103 163 -3.1;
#X obj 56 244 expr atan2($f1 \, $f2);
#X obj 56 117 t b b b b;
#X msg 211 163 1.2;
#X connect 0 0 4 0;
#X connect 2 0 6 0;
#X connect 3 0 6 0;
#X connect 4 0 7 0;
#X connect 5 0 6 1;
#X connect 6 0 1 0;
#X connect 7 0 3 0;
#X connect 7 1 5 0;
#X connect 7 2 2 0;
#X connect 7 3 8 0;
#X connect 8 0 6 1;
