#N canvas 827 239 734 565 12;
#X obj 70 64 inlet;
#X obj 438 259 outlet;
#X obj 483 259 outlet;
#X obj 528 259 outlet;
#X obj 573 259 outlet;
#X obj 618 259 outlet;
#X obj 663 259 outlet;
#X obj 573 211 del 4;
#X obj 618 211 del 2;
#X obj 528 211 del 6;
#X obj 483 211 del 8;
#X obj 438 211 del 10;
#X obj 70 102 t b b b b b b b b b b b b b b, f 76;
#X obj 211 259 outlet;
#X obj 256 259 outlet;
#X obj 301 259 outlet;
#X obj 346 259 outlet;
#X obj 391 259 outlet;
#X obj 391 211 del 12;
#X obj 346 211 del 14;
#X obj 301 211 del 16;
#X obj 256 211 del 18;
#X obj 211 211 del 20;
#X obj 70 259 outlet;
#X obj 115 259 outlet;
#X obj 160 259 outlet;
#X obj 115 211 del 24;
#X obj 160 211 del 22;
#X obj 70 211 del 26;
#X connect 0 0 12 0;
#X connect 7 0 4 0;
#X connect 8 0 5 0;
#X connect 9 0 3 0;
#X connect 10 0 2 0;
#X connect 11 0 1 0;
#X connect 12 0 28 0;
#X connect 12 1 26 0;
#X connect 12 2 27 0;
#X connect 12 3 22 0;
#X connect 12 4 21 0;
#X connect 12 5 20 0;
#X connect 12 6 19 0;
#X connect 12 7 18 0;
#X connect 12 8 11 0;
#X connect 12 9 10 0;
#X connect 12 10 9 0;
#X connect 12 11 7 0;
#X connect 12 12 8 0;
#X connect 12 13 6 0;
#X connect 18 0 17 0;
#X connect 19 0 16 0;
#X connect 20 0 15 0;
#X connect 21 0 14 0;
#X connect 22 0 13 0;
#X connect 26 0 24 0;
#X connect 27 0 25 0;
#X connect 28 0 23 0;
