#N canvas 827 239 734 565 12;
#X obj 59 55 inlet;
#X obj 59 93 t b b b b b b, f 35;
#X obj 59 190 outlet;
#X obj 104 190 outlet;
#X obj 149 190 outlet;
#X obj 194 190 outlet;
#X obj 239 190 outlet;
#X obj 284 190 outlet;
#X obj 194 142 del 4;
#X obj 239 142 del 2;
#X obj 149 142 del 6;
#X obj 104 142 del 8;
#X obj 59 142 del 10;
#X connect 0 0 1 0;
#X connect 1 0 12 0;
#X connect 1 1 11 0;
#X connect 1 2 10 0;
#X connect 1 3 8 0;
#X connect 1 4 9 0;
#X connect 1 5 7 0;
#X connect 8 0 5 0;
#X connect 9 0 6 0;
#X connect 10 0 4 0;
#X connect 11 0 3 0;
#X connect 12 0 2 0;
