#N canvas 827 239 734 565 12;
#X obj 67 67 loadbang;
#X obj 67 93 bng 25 250 50 0 empty empty empty 17 7 0 10 #191919 #ffffff #ffffff;
#X obj 67 125 t b b b b b b b b b b b b b b b b b b b b, f 74;
#X msg 67 186 0.1;
#X msg 144 203 0.4;
#X msg 119 186 0.2;
#X msg 92 203 0.3;
#X msg 175 186 0.1;
#X msg 252 203 0.4;
#X msg 227 186 0.2;
#X msg 200 203 0.3;
#X msg 278 186 0.1;
#X msg 355 203 0.4;
#X msg 330 186 0.2;
#X msg 303 203 0.3;
#X msg 386 186 0.1;
#X msg 463 203 0.4;
#X msg 438 186 0.2;
#X msg 411 203 0.3;
#X msg 490 186 0.1;
#X msg 567 203 0.4;
#X msg 542 186 0.2;
#X msg 515 203 0.3;
#X obj 65 458 print;
#X obj 65 338 expr~ sin($v1 + $v2) - ($v3 / $v4) * $v5 - ($v6 + $v7) - ($v8 / $v9) * $v10 * ($v11 + $v12 - ($v13 / $v14) * $v15) + ($v16 + $v17 - tanh($v18 / $v19) * $v20), f 75;
#X obj 67 237 sig~;
#X obj 119 237 sig~;
#X obj 92 267 sig~;
#X obj 438 237 sig~;
#X obj 490 237 sig~;
#X obj 463 267 sig~;
#X obj 542 237 sig~;
#X obj 515 267 sig~;
#X obj 567 267 sig~;
#X obj 411 267 sig~;
#X obj 386 237 sig~;
#X obj 303 267 sig~;
#X obj 355 267 sig~;
#X obj 330 237 sig~;
#X obj 278 237 sig~;
#X obj 252 267 sig~;
#X obj 227 237 sig~;
#X obj 200 267 sig~;
#X obj 175 237 sig~;
#X obj 144 267 sig~;
#X obj 65 410 snapshot~;
#X obj 19 338 del 2;
#X connect 0 0 1 0;
#X connect 1 0 2 0;
#X connect 2 0 3 0;
#X connect 2 0 46 0;
#X connect 2 1 6 0;
#X connect 2 2 5 0;
#X connect 2 3 4 0;
#X connect 2 4 7 0;
#X connect 2 5 10 0;
#X connect 2 6 9 0;
#X connect 2 7 8 0;
#X connect 2 8 11 0;
#X connect 2 9 14 0;
#X connect 2 10 13 0;
#X connect 2 11 12 0;
#X connect 2 12 15 0;
#X connect 2 13 18 0;
#X connect 2 14 17 0;
#X connect 2 15 16 0;
#X connect 2 16 19 0;
#X connect 2 17 22 0;
#X connect 2 18 21 0;
#X connect 2 19 20 0;
#X connect 3 0 25 0;
#X connect 4 0 44 0;
#X connect 5 0 26 0;
#X connect 6 0 27 0;
#X connect 7 0 43 0;
#X connect 8 0 40 0;
#X connect 9 0 41 0;
#X connect 10 0 42 0;
#X connect 11 0 39 0;
#X connect 12 0 37 0;
#X connect 13 0 38 0;
#X connect 14 0 36 0;
#X connect 15 0 35 0;
#X connect 16 0 30 0;
#X connect 17 0 28 0;
#X connect 18 0 34 0;
#X connect 19 0 29 0;
#X connect 20 0 33 0;
#X connect 21 0 31 0;
#X connect 22 0 32 0;
#X connect 24 0 45 0;
#X connect 25 0 24 0;
#X connect 26 0 24 2;
#X connect 27 0 24 1;
#X connect 28 0 24 14;
#X connect 29 0 24 16;
#X connect 30 0 24 15;
#X connect 31 0 24 18;
#X connect 32 0 24 17;
#X connect 33 0 24 19;
#X connect 34 0 24 13;
#X connect 35 0 24 12;
#X connect 36 0 24 9;
#X connect 37 0 24 11;
#X connect 38 0 24 10;
#X connect 39 0 24 8;
#X connect 40 0 24 7;
#X connect 41 0 24 6;
#X connect 42 0 24 5;
#X connect 43 0 24 4;
#X connect 44 0 24 3;
#X connect 45 0 23 0;
#X connect 46 0 45 0;
