#N canvas 827 239 734 565 12;
#X obj 93 73 loadbang;
#X obj 93 104 bng 25 250 50 0 empty empty empty 17 7 0 10 #191919 #ffffff #ffffff;
#X obj 93 452 print;
#X obj 93 420 snapshot~;
#X msg 174 241 0.5;
#X msg 221 241 3.7;
#X msg 267 241 -5;
#X msg 307 241 6;
#X msg 349 241 34;
#X msg 387 240 35;
#X msg 424 240 1000;
#X obj 93 145 t_delays_long;
#X obj 174 348 sig~;
#X obj 174 374 expr~ fact($v1);
#X connect 0 0 1 0;
#X connect 1 0 11 0;
#X connect 3 0 2 0;
#X connect 4 0 12 0;
#X connect 5 0 12 0;
#X connect 6 0 12 0;
#X connect 7 0 12 0;
#X connect 8 0 12 0;
#X connect 9 0 12 0;
#X connect 10 0 12 0;
#X connect 11 0 3 0;
#X connect 11 1 4 0;
#X connect 11 2 3 0;
#X connect 11 3 5 0;
#X connect 11 4 3 0;
#X connect 11 5 6 0;
#X connect 11 6 3 0;
#X connect 11 7 7 0;
#X connect 11 8 3 0;
#X connect 11 9 8 0;
#X connect 11 10 3 0;
#X connect 11 11 9 0;
#X connect 11 12 3 0;
#X connect 11 13 10 0;
#X connect 12 0 13 0;
#X connect 13 0 3 0;
