#N canvas 827 239 734 565 12;
#X obj 90 205 expr~ $v1 + $f2 + $i3;
#X obj 34 38 loadbang;
#X obj 34 64 bng 25 250 50 0 empty empty empty 17 7 0 10 #191919 #ffffff #ffffff;
#X obj 34 205 del 2;
#X obj 34 249 snapshot~;
#X obj 34 275 print;
#X obj 34 101 t b b b b;
#X msg 90 144 1;
#X obj 90 172 sig~;
#X msg 148 144 2;
#X msg 206 144 3;
#X connect 0 0 4 0;
#X connect 1 0 2 0;
#X connect 2 0 6 0;
#X connect 3 0 4 0;
#X connect 4 0 5 0;
#X connect 6 0 3 0;
#X connect 6 1 7 0;
#X connect 6 2 9 0;
#X connect 6 3 10 0;
#X connect 7 0 8 0;
#X connect 8 0 0 0;
#X connect 9 0 0 1;
#X connect 10 0 0 2;
