#N canvas 827 239 734 565 12;
#X obj 60 47 loadbang;
#X obj 60 74 bng 25 250 50 0 empty empty empty 17 7 0 10 #191919 #ffffff #ffffff;
#X obj 60 288 print;
#X obj 76 191 sig~;
#X obj 60 256 snapshot~;
#X obj 60 108 t_delays, f 15;
#X msg 76 161 2.3;
#X msg 217 161 3.1;
#X obj 76 222 expr~ if($v1 < $v2 \, $v1 \, 0);
#X obj 217 191 sig~;
#X connect 0 0 1 0;
#X connect 1 0 5 0;
#X connect 3 0 8 0;
#X connect 4 0 2 0;
#X connect 5 0 4 0;
#X connect 5 1 6 0;
#X connect 5 3 7 0;
#X connect 6 0 3 0;
#X connect 7 0 9 0;
#X connect 8 0 4 0;
#X connect 9 0 8 1;
