#N canvas 827 239 734 565 12;
#X obj 60 47 loadbang;
#X obj 60 74 bng 25 250 50 0 empty empty empty 17 7 0 10 #191919 #ffffff #ffffff;
#X obj 60 345 print;
#X obj 143 222 sig~;
#X obj 60 313 snapshot~;
#X obj 60 108 t_values;
#X msg 143 161 5.7;
#X msg 109 161 -3.1;
#X msg 76 161 2.3;
#X obj 143 256 expr~ ~$v1;
#X connect 0 0 1 0;
#X connect 1 0 5 0;
#X connect 3 0 9 0;
#X connect 4 0 2 0;
#X connect 5 0 4 0;
#X connect 5 1 8 0;
#X connect 5 2 4 0;
#X connect 5 3 7 0;
#X connect 5 4 4 0;
#X connect 5 5 6 0;
#X connect 6 0 3 0;
#X connect 7 0 3 0;
#X connect 8 0 3 0;
#X connect 9 0 4 0;
