#N canvas 670 156 450 300 12;
#X obj 55 17 loadbang;
#X obj 55 302 print;
#X msg 91 134 2.3;
#X obj 55 245 snapshot~;
#X obj 55 92 t_delays;
#X obj 55 50 bng 25 250 50 0 empty empty empty 17 7 0 10 #191919 #ffffff #ffffff;
#X obj 230 161 sig~;
#X obj 91 161 sig~;
#X obj 214 302 print;
#X obj 214 245 snapshot~;
#X obj 71 211 expr~ $v1%2;
#X obj 230 211 expr~ $v1%3;
#X msg 230 134 -7.1;
#X connect 0 0 5 0;
#X connect 2 0 7 0;
#X connect 3 0 1 0;
#X connect 4 0 3 0;
#X connect 4 1 9 0;
#X connect 4 2 2 0;
#X connect 4 3 12 0;
#X connect 5 0 4 0;
#X connect 6 0 11 0;
#X connect 7 0 10 0;
#X connect 9 0 8 0;
#X connect 10 0 3 0;
#X connect 11 0 9 0;
#X connect 12 0 6 0;
