#N canvas 827 239 734 565 12;
#X obj 60 47 loadbang;
#X obj 60 74 bng 25 250 50 0 empty empty empty 17 7 0 10 #191919 #ffffff #ffffff;
#X obj 112 393 print;
#X msg 287 172 5.5;
#X msg 112 172 2.3;
#X obj 228 393 print;
#X obj 350 393 print;
#X obj 470 393 print;
#X msg 199 172 -3.1;
#X obj 60 108 t_delays_long;
#X obj 112 298 sig~;
#X obj 228 298 sig~;
#X obj 350 298 sig~, f 4;
#X obj 470 298 sig~, f 4;
#X obj 350 360 snapshot~;
#X obj 470 360 snapshot~;
#X obj 112 360 snapshot~;
#X obj 228 360 snapshot~;
#X obj 60 172 t b b;
#X obj 60 198 del 2;
#X obj 112 328 expr~ cos($v1);
#X obj 228 328 expr~ acos($v1);
#X obj 350 328 expr~ cosh($v1);
#X obj 470 328 expr~ acosh($v1);
#X connect 0 0 1 0;
#X connect 1 0 9 0;
#X connect 3 0 13 0;
#X connect 3 0 12 0;
#X connect 3 0 11 0;
#X connect 3 0 10 0;
#X connect 4 0 11 0;
#X connect 4 0 12 0;
#X connect 4 0 13 0;
#X connect 4 0 10 0;
#X connect 8 0 11 0;
#X connect 8 0 12 0;
#X connect 8 0 13 0;
#X connect 8 0 10 0;
#X connect 9 0 18 0;
#X connect 9 1 14 0;
#X connect 9 2 15 0;
#X connect 9 3 4 0;
#X connect 9 4 16 0;
#X connect 9 5 17 0;
#X connect 9 6 14 0;
#X connect 9 7 15 0;
#X connect 9 8 8 0;
#X connect 9 9 16 0;
#X connect 9 10 17 0;
#X connect 9 11 14 0;
#X connect 9 12 15 0;
#X connect 9 13 3 0;
#X connect 10 0 20 0;
#X connect 11 0 21 0;
#X connect 12 0 22 0;
#X connect 13 0 23 0;
#X connect 14 0 6 0;
#X connect 15 0 7 0;
#X connect 16 0 2 0;
#X connect 17 0 5 0;
#X connect 18 0 19 0;
#X connect 18 1 17 0;
#X connect 19 0 16 0;
#X connect 20 0 16 0;
#X connect 21 0 17 0;
#X connect 22 0 14 0;
#X connect 23 0 15 0;
