#N canvas 827 239 734 565 12;
#X obj 60 47 loadbang;
#X obj 60 74 bng 25 250 50 0 empty empty empty 17 7 0 10 #191919 #ffffff #ffffff;
#X obj 60 335 print;
#X obj 74 212 sig~;
#X obj 60 303 snapshot~;
#X obj 60 108 t_delays, f 37;
#X msg 74 179 2.3;
#X obj 202 212 sig~;
#X obj 202 335 print;
#X obj 202 303 snapshot~;
#X obj 74 246 expr~ rint($v1);
#X obj 202 246 expr~ round($v1);
#X obj 334 212 sig~;
#X obj 334 335 print;
#X obj 334 303 snapshot~;
#X obj 334 246 expr~ nearbyint($v1);
#X msg 202 179 -3.1;
#X msg 334 179 5.7;
#X connect 0 0 1 0;
#X connect 1 0 5 0;
#X connect 3 0 10 0;
#X connect 4 0 2 0;
#X connect 5 0 4 0;
#X connect 5 1 6 0;
#X connect 5 2 9 0;
#X connect 5 3 16 0;
#X connect 5 4 14 0;
#X connect 5 5 17 0;
#X connect 6 0 3 0;
#X connect 7 0 11 0;
#X connect 9 0 8 0;
#X connect 10 0 4 0;
#X connect 11 0 9 0;
#X connect 12 0 15 0;
#X connect 14 0 13 0;
#X connect 15 0 14 0;
#X connect 16 0 7 0;
#X connect 17 0 12 0;
