#N canvas 827 239 734 565 12;
#X obj 60 47 loadbang;
#X obj 60 74 bng 25 250 50 0 empty empty empty 17 7 0 10 #191919 #ffffff #ffffff;
#X obj 60 345 print;
#X obj 98 223 sig~;
#X obj 60 313 snapshot~;
#X obj 213 223 sig~;
#X obj 60 108 t_delays;
#X obj 98 257 expr~ atan2($v1 \, $v2);
#X msg 98 169 2.3;
#X msg 139 169 -3.1;
#X msg 179 169 5.5;
#X msg 213 169 1.2;
#X connect 0 0 1 0;
#X connect 1 0 6 0;
#X connect 3 0 7 0;
#X connect 4 0 2 0;
#X connect 5 0 7 1;
#X connect 6 0 4 0;
#X connect 6 1 8 0;
#X connect 6 2 9 0;
#X connect 6 3 4 0;
#X connect 6 4 10 0;
#X connect 6 5 11 0;
#X connect 7 0 4 0;
#X connect 8 0 3 0;
#X connect 9 0 5 0;
#X connect 10 0 3 0;
#X connect 11 0 5 0;
