#N canvas 827 239 734 565 12;
#X obj 93 73 loadbang;
#X obj 93 104 bng 25 250 50 0 empty empty empty 17 7 0 10 #191919 #ffffff #ffffff;
#X obj 93 377 print;
#X obj 93 345 snapshot~;
#X obj 93 145 t_delays;
#X obj 134 265 sig~;
#X obj 134 295 expr~ pow($v1 \, $v2);
#X obj 242 265 sig~;
#X msg 134 216 0.5;
#X msg 176 216 -2.5;
#X msg 222 216 3.7;
#X msg 263 216 5;
#X connect 0 0 1 0;
#X connect 1 0 4 0;
#X connect 3 0 2 0;
#X connect 4 0 3 0;
#X connect 4 1 8 0;
#X connect 4 2 9 0;
#X connect 4 3 3 0;
#X connect 4 4 10 0;
#X connect 4 5 11 0;
#X connect 5 0 6 0;
#X connect 6 0 3 0;
#X connect 7 0 6 1;
#X connect 8 0 5 0;
#X connect 9 0 7 0;
#X connect 10 0 5 0;
#X connect 11 0 7 0;
