#N canvas 827 239 734 565 12;
#X obj 93 73 loadbang;
#X obj 93 104 bng 25 250 50 0 empty empty empty 17 7 0 10 #191919 #ffffff #ffffff;
#X obj 93 327 print;
#X obj 93 295 snapshot~;
#X obj 134 245 expr~ isnan($v1);
#X obj 93 145 t_delays;
#X obj 134 189 expr log(-1);
#X obj 134 215 sig~;
#X connect 0 0 1 0;
#X connect 1 0 5 0;
#X connect 3 0 2 0;
#X connect 4 0 3 0;
#X connect 5 0 3 0;
#X connect 5 1 6 0;
#X connect 6 0 7 0;
#X connect 7 0 4 0;
