#N canvas 827 239 734 565 12;
#X obj 93 73 loadbang;
#X obj 93 100 bng 25 250 50 0 empty empty empty 17 7 0 10 #191919 #ffffff #ffffff;
#X obj 93 396 print;
#X obj 141 266 sig~;
#X obj 93 364 snapshot~;
#X obj 93 134 t_delays;
#X msg 142 187 2;
#X msg 109 187 1;
#X obj 140 300 expr~ isinf($v1);
#X obj 141 235 pow 1e+10;
#X connect 0 0 1 0;
#X connect 1 0 5 0;
#X connect 3 0 8 0;
#X connect 4 0 2 0;
#X connect 5 0 4 0;
#X connect 5 1 7 0;
#X connect 5 2 4 0;
#X connect 5 3 6 0;
#X connect 6 0 9 0;
#X connect 7 0 9 0;
#X connect 8 0 4 0;
#X connect 9 0 3 0;
