#N canvas 827 239 734 565 12;
#X obj 60 47 loadbang;
#X obj 60 74 bng 25 250 50 0 empty empty empty 17 7 0 10 #191919 #ffffff #ffffff;
#X obj 60 448 print;
#X msg 109 214 0.5;
#X msg 193 214 3.7;
#X msg 282 187 -5;
#X obj 282 285 sig~;
#X obj 282 319 expr~ sqrt($v1);
#X obj 60 402 snapshot~;
#X obj 60 108 t b b b b b b;
#X obj 239 187 del 2;
#X obj 193 187 del 4;
#X obj 152 187 del 6;
#X obj 109 187 del 8;
#X obj 60 187 del 10;
#X connect 0 0 1 0;
#X connect 1 0 9 0;
#X connect 3 0 6 0;
#X connect 4 0 6 0;
#X connect 5 0 6 0;
#X connect 6 0 7 0;
#X connect 7 0 8 0;
#X connect 8 0 2 0;
#X connect 9 0 14 0;
#X connect 9 1 13 0;
#X connect 9 2 12 0;
#X connect 9 3 11 0;
#X connect 9 4 10 0;
#X connect 9 5 5 0;
#X connect 10 0 8 0;
#X connect 11 0 4 0;
#X connect 12 0 8 0;
#X connect 13 0 3 0;
#X connect 14 0 8 0;
