#N canvas 827 239 734 565 12;
#X obj 93 73 loadbang;
#X obj 93 104 bng 25 250 50 0 empty empty empty 17 7 0 10 #191919 #ffffff #ffffff;
#X obj 93 452 print;
#X obj 93 420 snapshot~;
#X obj 93 145 t_delays;
#X obj 134 265 sig~;
#X msg 134 199 0.5;
#X msg 179 199 -2.5;
#X msg 226 199 3.7;
#X obj 291 452 print;
#X obj 291 420 snapshot~;
#X obj 291 265 sig~;
#X obj 93 332 t b b;
#X obj 291 295 expr~ remainder($v1 \, 2);
#X obj 134 295 expr~ fmod($v1 \, 2.1);
#X obj 93 372 del 1;
#X text 134 371 make sure second snapshot outputs later;
#X connect 0 0 1 0;
#X connect 1 0 4 0;
#X connect 3 0 2 0;
#X connect 4 0 12 0;
#X connect 4 1 6 0;
#X connect 4 2 12 0;
#X connect 4 3 7 0;
#X connect 4 4 12 0;
#X connect 4 5 8 0;
#X connect 5 0 14 0;
#X connect 6 0 5 0;
#X connect 6 0 11 0;
#X connect 7 0 5 0;
#X connect 7 0 11 0;
#X connect 8 0 5 0;
#X connect 8 0 11 0;
#X connect 10 0 9 0;
#X connect 11 0 13 0;
#X connect 12 0 15 0;
#X connect 12 1 10 0;
#X connect 13 0 10 0;
#X connect 14 0 3 0;
#X connect 15 0 3 0;
