#N canvas 827 239 734 565 12;
#X obj 60 47 loadbang;
#X obj 60 74 bng 25 250 50 0 empty empty empty 17 7 0 10 #191919 #ffffff #ffffff;
#X obj 60 345 print;
#X obj 76 222 sig~;
#X obj 60 313 snapshot~;
#X obj 60 108 t_delays;
#X msg 76 161 2.3;
#X obj 204 222 sig~;
#X obj 204 345 print;
#X obj 204 313 snapshot~;
#X msg 204 161 -7.3;
#X obj 76 256 expr~ $v1 ^ 3;
#X obj 204 256 expr~ 11 ^ $v1;
#X connect 0 0 1 0;
#X connect 1 0 5 0;
#X connect 3 0 11 0;
#X connect 4 0 2 0;
#X connect 5 0 4 0;
#X connect 5 1 6 0;
#X connect 5 2 9 0;
#X connect 5 3 10 0;
#X connect 6 0 3 0;
#X connect 7 0 12 0;
#X connect 9 0 8 0;
#X connect 10 0 7 0;
#X connect 11 0 4 0;
#X connect 12 0 9 0;
