#N canvas 408 561 260 346 10;
#X obj 46 255 pack f f;
#X obj 91 104 inlet channel;
#X obj 91 155 f \$1;
#X obj 91 226 clip 0 15;
#X obj 108 129 loadbang;
#X obj 46 285 s __hv_bendout @hv_param;
#X obj 46 40 inlet bend;
#X obj 46 72 + 8192;
#X obj 91 190 - 1;
#X connect 0 0 5 0;
#X connect 1 0 2 0;
#X connect 2 0 8 0;
#X connect 3 0 0 1;
#X connect 4 0 2 0;
#X connect 6 0 7 0;
#X connect 7 0 0 0;
#X connect 8 0 3 0;
