#N canvas 515 39 304 425 10;
#X obj 32 167 *~ 6.28319;
#X obj 32 17 inlet~;
#X obj 31 594 outlet~;
#X obj 32 137 -~ 0.25;
#X obj 32 77 -~ 0.5;
#X obj 32 107 abs~;
#X obj 32 47 wrap~;
#X obj 64 268 *~;
#X obj 92 327 *~;
#X obj 127 215 *~;
#X text 166 214 x^2;
#X text 100 267 x^3;
#X text 127 326 x^5;
#X obj 32 430 +~;
#X obj 32 360 -~;
#X obj 65 298 *~ 0.166667;
#X obj 92 359 *~ 0.00833333;
#X obj 113 391 *~;
#X obj 113 425 *~ 0.000198413;
#X obj 32 518 -~;
#X obj 139 455 *~;
#X obj 31 551 +~;
#X obj 139 481 *~ 2.75573e-06;
#X text 148 390 x^7;
#X text 176 454 x^9;
#X text 121 166 sine taylor approximation;
#X connect 0 0 14 0;
#X connect 0 0 7 0;
#X connect 0 0 9 0;
#X connect 0 0 9 1;
#X connect 1 0 6 0;
#X connect 3 0 0 0;
#X connect 4 0 5 0;
#X connect 5 0 3 0;
#X connect 6 0 4 0;
#X connect 7 0 15 0;
#X connect 7 0 8 0;
#X connect 8 0 16 0;
#X connect 8 0 17 0;
#X connect 9 0 8 1;
#X connect 9 0 7 1;
#X connect 9 0 17 1;
#X connect 9 0 20 1;
#X connect 13 0 19 0;
#X connect 14 0 13 0;
#X connect 15 0 14 1;
#X connect 16 0 13 1;
#X connect 17 0 18 0;
#X connect 17 0 20 0;
#X connect 18 0 19 1;
#X connect 19 0 21 0;
#X connect 20 0 22 0;
#X connect 21 0 2 0;
#X connect 22 0 21 1;
