#N canvas 1569 112 244 354 10;
#X obj 44 260 pack f f f;
#X obj 44 291 s __hv_noteout @hv_param;
#X obj 44 24 inlet note;
#X obj 70 52 inlet vel;
#X obj 101 125 inlet channel;
#X obj 101 229 clip 0 15;
#X obj 139 60 loadbang;
#X obj 139 91 t b b;
#X obj 70 91 f \$1;
#X obj 101 156 f \$2;
#X obj 101 192 - 1;
#X connect 0 0 1 0;
#X connect 2 0 0 0;
#X connect 3 0 8 0;
#X connect 4 0 9 0;
#X connect 5 0 0 2;
#X connect 6 0 7 0;
#X connect 7 0 8 0;
#X connect 7 1 9 0;
#X connect 8 0 0 1;
#X connect 9 0 10 0;
#X connect 10 0 5 0;
