#N canvas 883 407 246 306 10;
#X obj 52 258 s __hv_pgmout @hv_param;
#X obj 52 226 pack f f;
#X obj 97 74 inlet channel;
#X obj 97 131 f \$1;
#X obj 97 198 clip 0 15;
#X obj 114 101 loadbang;
#X obj 52 40 inlet program;
#X obj 97 164 - 1;
#X connect 1 0 0 0;
#X connect 2 0 3 0;
#X connect 3 0 7 0;
#X connect 4 0 1 1;
#X connect 5 0 3 0;
#X connect 6 0 1 0;
#X connect 7 0 4 0;
