#N canvas 489 542 278 331 10;
#X obj 59 232 pack f f f;
#X obj 59 46 inlet note;
#X obj 87 76 inlet vel;
#X obj 126 133 loadbang;
#X obj 116 163 f \$1;
#X obj 116 106 inlet channel;
#X obj 116 185 - 1;
#X obj 116 208 max;
#X obj 59 264 s __hv_polytouchout @hv_param;
#X connect 0 0 8 0;
#X connect 1 0 0 0;
#X connect 2 0 0 1;
#X connect 3 0 4 0;
#X connect 4 0 6 0;
#X connect 5 0 4 0;
#X connect 6 0 7 0;
#X connect 7 0 0 2;
