#N canvas 796 489 436 234 12;
#X obj 25 15 inlet~;
#N canvas 0 22 450 300 @hv_obj 0;
#X obj 146 77 inlet;
#X obj 147 120 outlet;
#X restore 211 129 pd @hv_obj system;
#X text 80 22 measured after initialisation;
#X text 80 11 NOTE(mhroth): ensure that the table size is;
#X obj 25 184 outlet~;
#X obj 211 48 loadbang;
#X obj 65 111 r __hv_blocksize;
#X obj 211 185 outlet~;
#X msg 211 104 table \$1 size;
#X obj 71 62 table rfft_\$0;
#X obj 211 76 symbol rfft_\$0;
#N canvas 0 22 450 300 @hv_obj 0;
#X obj 55 136 outlet~;
#X obj 55 75 inlet~;
#X obj 190 74 inlet;
#X obj 122 78 inlet;
#X obj 167 137 outlet~;
#X restore 25 155 pd @hv_obj __rfft~f rfft_\$0;
#X connect 0 0 11 0;
#X connect 1 0 11 2;
#X connect 5 0 10 0;
#X connect 6 0 11 1;
#X connect 8 0 1 0;
#X connect 10 0 8 0;
#X connect 11 0 4 0;
#X connect 11 1 7 0;
