#N canvas 879 333 486 278 12;
#X obj 24 59 inlet~;
#X text 22 24 measured after initialisation;
#X text 22 14 NOTE(mhroth): ensure that the table size is;
#X obj 24 227 outlet~;
#X obj 157 121 r __hv_blocksize;
#X obj 91 59 inlet~;
#N canvas 0 22 450 300 @hv_obj 0;
#X obj 55 136 outlet~;
#X obj 55 75 inlet~;
#X obj 247 75 inlet;
#X obj 179 75 inlet;
#X obj 117 75 inlet~;
#X restore 24 197 pd @hv_obj __rifft~f rifft_\$0;
#N canvas 0 22 450 300 @hv_obj 0;
#X obj 146 77 inlet;
#X obj 147 120 outlet;
#X restore 287 144 pd @hv_obj system;
#X obj 287 63 loadbang;
#X msg 287 119 table \$1 size;
#X obj 150 77 table rifft_\$0;
#X obj 287 91 symbol rifft_\$0;
#X connect 0 0 6 0;
#X connect 4 0 6 2;
#X connect 5 0 6 1;
#X connect 6 0 3 0;
#X connect 7 0 6 3;
#X connect 8 0 11 0;
#X connect 9 0 7 0;
#X connect 11 0 9 0;
