#N canvas 1920 0 582 386 12;
#X text 23 276 @hv_arg \$2 size int 0 false;
#X text 23 254 @hv_arg \$1 table string "" true;
#X obj 24 59 inlet~;
#X msg 275 116 table \$1 size;
#N canvas 0 22 450 300 @hv_obj 0;
#X obj 146 77 inlet;
#X obj 147 120 outlet;
#X restore 275 139 pd @hv_obj system;
#X text 22 24 measured after initialisation;
#X text 22 14 NOTE(mhroth): ensure that the table size is;
#X obj 24 227 outlet~;
#X obj 275 92 symbol \$0;
#X obj 275 71 loadbang;
#X obj 129 120 r __hv_blocksize;
#N canvas 0 22 450 300 @hv_obj 0;
#X obj 55 136 outlet~;
#X obj 55 75 inlet~;
#X obj 247 75 inlet;
#X obj 179 75 inlet;
#X obj 117 75 inlet~;
#X restore 24 197 pd @hv_obj __rifft~f \$0;
#X obj 77 59 inlet~;
#X connect 2 0 11 0;
#X connect 3 0 4 0;
#X connect 4 0 11 3;
#X connect 8 0 3 0;
#X connect 9 0 8 0;
#X connect 10 0 11 2;
#X connect 11 0 7 0;
#X connect 12 0 11 1;
