#N canvas 827 239 734 565 12;
#X obj 191 102 inlet;
#X obj 191 173 route read write;
#X obj 191 257 route -resize;
#X obj 231 210 s __hv_snd_write @hv_param;
#X obj 253 289 s __hv_snd_read @hv_param;
#X obj 191 316 s __hv_snd_read_resize @hv_param;
#X obj 191 472 outlet;
#X obj 366 472 outlet;
#X connect 0 0 1 0;
#X connect 1 0 2 0;
#X connect 1 1 3 0;
#X connect 2 0 5 0;
#X connect 2 1 4 0;
