#N canvas 93 436 734 565 12;
#X obj 41 35 inlet;
#X obj 41 67 route read write;
#X obj 41 151 route -resize;
#X obj 81 122 s __hv_snd_write @hv_param;
#X obj 103 208 s __hv_snd_read @hv_param;
#X obj 41 264 s __hv_snd_read_resize @hv_param;
#X obj 41 368 outlet;
#X obj 216 368 outlet;
#N canvas 1468 0 450 300 pack_id 1;
#X obj 29 50 t b a;
#X obj 29 103 f \$0;
#X obj 29 22 inlet;
#X obj 29 228 outlet;
#X obj 41 77 unpack s s;
#X obj 29 202 pack f s s;
#X msg 41 132 symbol \$1;
#X msg 91 161 symbol \$1;
#X connect 0 0 1 0;
#X connect 0 1 4 0;
#X connect 1 0 5 0;
#X connect 2 0 0 0;
#X connect 4 0 6 0;
#X connect 4 1 7 0;
#X connect 5 0 3 0;
#X connect 6 0 5 1;
#X connect 7 0 5 2;
#X restore 41 235 pd pack_id;
#N canvas 1468 0 450 300 pack_id 1;
#X obj 42 56 t b a;
#X obj 42 109 f \$0;
#X obj 42 28 inlet;
#X obj 42 234 outlet;
#X obj 54 83 unpack s s;
#X obj 42 208 pack f s s;
#X msg 54 138 symbol \$1;
#X msg 104 167 symbol \$1;
#X connect 0 0 1 0;
#X connect 0 1 4 0;
#X connect 1 0 5 0;
#X connect 2 0 0 0;
#X connect 4 0 6 0;
#X connect 4 1 7 0;
#X connect 5 0 3 0;
#X connect 6 0 5 1;
#X connect 7 0 5 2;
#X restore 103 181 pd pack_id;
#N canvas 1468 0 450 300 pack_id 1;
#X obj 57 69 t b a;
#X obj 57 122 f \$0;
#X obj 57 41 inlet;
#X obj 57 247 outlet;
#X obj 69 96 unpack s s;
#X obj 57 221 pack f s s;
#X msg 69 151 symbol \$1;
#X msg 119 180 symbol \$1;
#X connect 0 0 1 0;
#X connect 0 1 4 0;
#X connect 1 0 5 0;
#X connect 2 0 0 0;
#X connect 4 0 6 0;
#X connect 4 1 7 0;
#X connect 5 0 3 0;
#X connect 6 0 5 1;
#X connect 7 0 5 2;
#X restore 81 95 pd pack_id;
#X obj 216 336 r \$0__hv_snd_info;
#X obj 41 336 r \$0__hv_snd_samples;
#X connect 0 0 1 0;
#X connect 1 0 2 0;
#X connect 1 1 10 0;
#X connect 2 0 8 0;
#X connect 2 1 9 0;
#X connect 8 0 5 0;
#X connect 9 0 4 0;
#X connect 10 0 3 0;
#X connect 11 0 7 0;
#X connect 12 0 6 0;
