#N canvas 648 404 450 300 12;
#X obj 47 10 inlet;
#X obj 47 503 outlet;
#X obj 47 335 unpack f f;
#X obj 96 503 outlet;
#X obj 47 460 spigot;
#X obj 107 408 != 0;
#X obj 96 460 spigot;
#X obj 248 10 inlet;
#X obj 216 289 spigot;
#X obj 96 365 t f f;
#X obj 96 87 unpack f f;
#X obj 47 41 t a a;
#X obj 111 199 f;
#X msg 96 159 0;
#X msg 144 159 1;
#X obj 47 289 spigot;
#X obj 216 199 pack f f;
#X obj 96 117 t b f b;
#X obj 241 258 == 0;
#X connect 0 0 11 0;
#X connect 2 0 4 0;
#X connect 2 1 9 0;
#X connect 4 0 1 0;
#X connect 5 0 4 1;
#X connect 5 0 6 1;
#X connect 6 0 3 0;
#X connect 6 0 16 1;
#X connect 7 0 16 1;
#X connect 8 0 2 0;
#X connect 9 0 6 0;
#X connect 9 1 5 0;
#X connect 10 0 17 0;
#X connect 10 1 14 0;
#X connect 11 0 15 0;
#X connect 11 1 10 0;
#X connect 12 0 15 1;
#X connect 12 0 18 0;
#X connect 13 0 12 1;
#X connect 14 0 12 1;
#X connect 15 0 2 0;
#X connect 16 0 8 0;
#X connect 17 0 13 0;
#X connect 17 1 16 0;
#X connect 17 2 12 0;
#X connect 18 0 8 1;
