#N canvas 216 248 450 300 10;
#X obj 94 374 outlet~;
#X obj 24 74 route set stop;
#N canvas 0 22 450 300 @hv_obj 1;
#X obj 226 67 inlet;
#X obj 171 66 inlet;
#X obj 164 138 outlet~, f 9;
#X restore 94 344 pd @hv_obj __tabread~f \$1;
#X text 94 403 @hv_arg \$1 table string "" true;
#X obj 24 44 inlet -->;
#X obj 94 104 t f b;
#X obj 94 164 max 0;
#X obj 94 314 min 0;
#X obj 143 164 symbol \$1;
#X msg 143 194 table \$1 length;
#N canvas 0 50 450 300 @hv_obj 1;
#X obj 113 85 inlet;
#X obj 113 161 outlet;
#X restore 143 224 pd @hv_obj system;
#X obj 143 253 - 1;
#X connect 1 0 2 1 empty;
#X connect 1 1 2 1 empty;
#X connect 1 2 5 0 empty;
#X connect 2 0 0 0 empty;
#X connect 4 0 1 0 empty;
#X connect 5 0 6 0 empty;
#X connect 5 1 8 0 empty;
#X connect 6 0 7 0 empty;
#X connect 7 0 2 0 empty;
#X connect 8 0 9 0 empty;
#X connect 9 0 10 0 empty;
#X connect 10 0 11 0 empty;
#X connect 11 0 7 1 empty;
