#N canvas 913 507 259 310 10;
#X obj 52 218 pack f f;
#X obj 97 71 inlet channel;
#X obj 97 127 f \$1;
#X obj 97 185 clip 0 15;
#X obj 114 98 loadbang;
#X obj 52 40 inlet touch;
#X obj 52 250 s __hv_touchout @hv_param;
#X obj 97 155 - 1;
#X connect 0 0 6 0;
#X connect 1 0 2 0;
#X connect 2 0 7 0;
#X connect 3 0 0 1;
#X connect 4 0 2 0;
#X connect 5 0 0 0;
#X connect 7 0 3 0;
