#N canvas 1039 0 450 300 12;
#N canvas 0 702 450 300 subtest 1;
#X obj 74 84 rfft~;
#X obj 74 146 rifft~;
#X obj 72 231 outlet~;
#X obj 74 43 inlet~;
#X obj 201 57 block~ 128;
#X obj 74 181 /~ 128;
#X connect 0 0 1 0;
#X connect 0 1 1 1;
#X connect 1 0 5 0;
#X connect 3 0 0 0;
#X connect 5 0 2 0;
#X restore 71 104 pd subtest;
#X obj 45 166 dac~;
#X obj 46 44 osc~ 1000;
#X connect 0 0 1 1;
#X connect 2 0 0 0;
#X connect 2 0 1 0;
