#N canvas -161 138 1160 710 12;
#X msg 485 535 print;
#X msg 466 481 start;
#X msg 543 509 stop;
#X obj 574 394 bng 19 250 50 0 empty empty empty 17 7 0 10 #dfdfdf #000000 #000000;
#X obj 466 653 writesf~, f 15;
#X obj 574 122 r recpatch;
#X msg 611 509 pd~ stop;
#X obj 308 281 r recsave;
#X obj 574 462 t b b;
#X obj 574 315 spigot;
#X obj 622 198 del 10;
#X obj 622 170 bng 18 250 50 0 empty empty empty 17 7 0 10 #e4e4e4 #5a5a5a #5a5a5a;
#X symbolatom 574 279 6 0 0 0 - - - 12;
#X obj 622 229 t b b;
#X obj 642 287 tgl 14 0 empty empty empty 17 7 0 10 #e4e4e4 #5a5a5a #5a5a5a 0 1;
#X obj 337 685 loadbang;
#X msg 337 731 \; pd dsp 1;
#X obj 639 642 bng 18 250 50 0 empty empty empty 17 7 0 10 #e4e4e4 #5a5a5a #5a5a5a;
#X obj 640 666 del 100;
#X msg 635 720 \; pd quit;
#X obj 574 344 t b s;
#X msg 938 623 0;
#X obj 693 548 pd~ -ninsig 0 -noutsig 1 -sr 48000, f 27;
#X obj 308 315 list prepend open -bytes 4;
#X obj 308 344 list trim;
#X obj 693 481 list prepend pd~ start -nogui;
#X obj 693 508 list trim;
#X obj 572 425 del 1066;
#X connect 0 0 4 0 empty;
#X connect 1 0 4 0 empty;
#X connect 2 0 4 0 empty;
#X connect 3 0 1 0 empty;
#X connect 3 0 27 0 empty;
#X connect 5 0 12 0 empty;
#X connect 5 0 11 0 empty;
#X connect 6 0 22 0 empty;
#X connect 7 0 23 0 empty;
#X connect 8 0 2 0 empty;
#X connect 8 0 17 0 empty;
#X connect 8 1 6 0 empty;
#X connect 9 0 20 0 empty;
#X connect 10 0 13 0 empty;
#X connect 11 0 10 0 empty;
#X connect 12 0 9 0 empty;
#X connect 13 0 12 0 empty;
#X connect 13 1 14 0 empty;
#X connect 14 0 9 1 empty;
#X connect 15 0 16 0 empty;
#X connect 17 0 18 0 empty;
#X connect 18 0 21 0 empty;
#X connect 18 0 19 0 empty;
#X connect 20 0 3 0 empty;
#X connect 20 1 25 0 empty;
#X connect 21 0 14 0 empty;
#X connect 22 1 4 0 empty;
#X connect 23 0 24 0 empty;
#X connect 24 0 4 0 empty;
#X connect 25 0 26 0 empty;
#X connect 26 0 22 0 empty;
#X connect 27 0 8 0 empty;
#X connect 27 0 0 0 empty;
