#N canvas 812 357 325 268 10;
#X obj 92 151 phasor~;
#X obj 60 62 t b b b;
#X obj 60 30 loadbang;
#X obj 140 30 bng 15 250 50 0 empty empty empty 17 7 0 10 #fcfcfc #000000 #000000;
#X obj 92 179 dac~ 1;
#X msg 147 115 220;
#X msg 92 113 -440;
#X msg 42 115 880;
#X obj 187 149 loadbang;
#X msg 187 175 \; pd dsp 1;
#X obj 95 86 del 252;
#X obj 42 92 del 756;
#X connect 0 0 4 0;
#X connect 1 0 11 0;
#X connect 1 1 10 0;
#X connect 1 2 5 0;
#X connect 2 0 1 0;
#X connect 3 0 1 0;
#X connect 5 0 0 0;
#X connect 6 0 0 0;
#X connect 7 0 0 0;
#X connect 8 0 9 0;
#X connect 10 0 6 0;
#X connect 11 0 7 0;
