#N canvas 100 369 524 152 12;
#X obj 34 79 dac~;
#X obj 34 39 adc~;
#X obj 116 39 notein;
#X obj 116 79 noteout;
#X obj 192 39 ctlin;
#X obj 192 79 ctlout;
#X obj 266 39 pgmin;
#X obj 266 79 pgmout;
#X obj 330 39 touchin;
#X obj 330 79 touchout;
#X obj 412 39 bendin;
#X obj 412 79 bendout;
#X connect 1 0 0 0;
#X connect 1 1 0 1;
#X connect 2 0 3 0;
#X connect 2 1 3 1;
#X connect 2 2 3 2;
#X connect 4 0 5 0;
#X connect 4 1 5 1;
#X connect 4 2 5 2;
#X connect 6 0 7 0;
#X connect 6 1 7 1;
#X connect 8 0 9 0;
#X connect 8 1 9 1;
#X connect 10 0 11 0;
#X connect 10 1 11 1;
